<svg role="img" aria-label="kowhai spray" version="1.1" xmlns="http://www.w3.org/2000/svg" viewBox="0 0 1024 1536" width="1024" height="1536">
<path d="M0 0 C337.9 0 675.8 0 1024 0 C1024 506.9 1024 1013.8 1024 1536 C686.1 1536 348.2 1536 0 1536 C0 1029.1 0 522.2 0 0 Z " fill="#EEE5D1" transform="translate(0,0)"/>
<path d="M0 0 C337.9 0 675.8 0 1024 0 C1024 506.9 1024 1013.8 1024 1536 C686.1 1536 348.2 1536 0 1536 C0 1029.1 0 522.2 0 0 Z M22.2 23.9 C16.5 33.6 15.8 44 15.9 55 C15.9 56 15.9 57 15.9 58 C15.9 61.3 15.9 64.7 15.9 68 C15.9 70.4 15.9 72.8 15.9 75.2 C15.9 80.5 15.9 85.8 15.9 91 C15.9 98.9 15.9 106.8 15.9 114.7 C15.9 128.1 15.9 141.5 15.9 155 C15.9 168.6 15.9 182.2 15.9 195.8 C15.9 196.7 15.9 197.5 15.9 198.4 C15.9 201.9 15.9 205.4 15.9 208.9 C15.9 241.6 15.9 274.2 15.9 306.8 C15.9 307.8 15.9 308.8 15.9 309.8 C15.9 310.7 15.9 311.7 15.9 312.7 C15.9 342.2 15.9 371.7 15.9 401.2 C15.9 403.2 15.9 405.2 15.9 407.2 C15.9 415.1 15.9 423 15.9 431 C15.9 453.2 15.9 475.4 15.9 497.6 C15.9 498.6 15.9 499.6 15.9 500.6 C15.9 532.9 15.9 565.1 15.9 597.3 C15.9 598.4 15.9 599.4 15.9 600.5 C15.9 617.5 15.9 634.4 15.9 651.4 C15.9 718.7 15.9 786 15.9 853.2 C15.9 870.2 15.9 887.1 15.9 904.1 C15.9 905.1 15.9 906.1 15.9 907.2 C15.9 939.4 15.9 971.6 15.9 1003.7 C15.9 1004.7 15.9 1005.7 15.9 1006.8 C15.9 1029 15.9 1051.2 15.9 1073.4 C15.9 1081.3 15.9 1089.2 15.9 1097.2 C15.9 1099.2 15.9 1101.1 15.9 1103.1 C15.9 1132.6 15.9 1162.1 15.9 1191.6 C15.9 1192.5 15.9 1193.5 15.9 1194.5 C15.9 1195.5 15.9 1196.4 15.9 1197.4 C15.9 1230 15.9 1262.5 15.9 1295.1 C15.9 1298.6 15.9 1302.1 15.9 1305.6 C15.9 1306.5 15.9 1307.3 15.9 1308.2 C15.9 1321.8 15.9 1335.4 15.9 1348.9 C15.9 1362.3 15.9 1375.7 15.9 1389 C15.9 1396.2 15.9 1403.3 15.9 1410.5 C15.8 1459.1 15.8 1459.1 16.3 1478.3 C16.3 1479.7 16.3 1481.2 16.4 1482.6 C16.5 1494.2 17.9 1505.1 26 1514 C36.4 1522.1 47 1522.3 59.6 1522.3 C61.2 1522.3 62.8 1522.3 64.4 1522.3 C68.8 1522.3 73.3 1522.3 77.7 1522.3 C82.5 1522.3 87.3 1522.3 92.1 1522.3 C100.5 1522.3 109 1522.3 117.4 1522.3 C129.9 1522.3 142.5 1522.3 155 1522.3 C178.7 1522.3 202.4 1522.3 226.1 1522.3 C244.3 1522.3 262.6 1522.3 280.9 1522.3 C283.5 1522.3 286.2 1522.3 288.8 1522.3 C292.7 1522.3 296.7 1522.3 300.7 1522.3 C337.5 1522.3 374.2 1522.3 411 1522.3 C411.4 1522.3 411.4 1522.3 413.1 1522.3 C420.9 1522.3 428.6 1522.3 436.3 1522.3 C436.7 1522.3 436.7 1522.3 438.5 1522.3 C444.3 1522.3 444.3 1522.3 446.9 1522.3 C491.6 1522.3 536.3 1522.3 580.9 1522.3 C592.2 1522.3 603.4 1522.3 614.7 1522.4 C615 1522.4 615 1522.4 616.8 1522.4 C638.2 1522.4 659.5 1522.4 680.9 1522.4 C681.5 1522.4 682.2 1522.4 682.9 1522.4 C698.3 1522.4 713.7 1522.4 729 1522.4 C734.3 1522.4 739.6 1522.4 744.8 1522.4 C746.1 1522.4 747.4 1522.4 748.7 1522.4 C768.3 1522.4 787.9 1522.4 807.5 1522.4 C829.7 1522.4 852 1522.4 874.2 1522.4 C886.7 1522.4 899.2 1522.4 911.6 1522.4 C920 1522.4 928.3 1522.4 936.6 1522.4 C941.3 1522.4 946.1 1522.4 950.8 1522.4 C955.1 1522.4 959.5 1522.4 963.8 1522.4 C965.3 1522.4 966.9 1522.4 968.4 1522.4 C980.7 1522.4 991.5 1521.4 1001 1513 C1008.6 1503.9 1009.2 1492.3 1009.1 1481 C1009.1 1480.1 1009.1 1479.2 1009.1 1478.3 C1009.1 1475.4 1009.1 1472.4 1009.1 1469.5 C1009.1 1467.3 1009.1 1465.2 1009.1 1463 C1009.1 1457.1 1009.1 1451.2 1009.1 1445.3 C1009.1 1438.9 1009.1 1432.4 1009.1 1426 C1009.1 1414.7 1009.1 1403.5 1009.1 1392.2 C1009.1 1380.1 1009.1 1368 1009.1 1355.9 C1009.1 1355.5 1009.1 1355.5 1009.1 1353.6 C1009.1 1350.5 1009.1 1347.4 1009.1 1344.2 C1009.1 1315.3 1009.1 1286.3 1009.1 1257.3 C1009.1 1256.9 1009.1 1256.9 1009.1 1254.7 C1009.1 1253.8 1009.1 1253 1009.1 1252.1 C1009.1 1225.9 1009.1 1199.7 1009.1 1173.5 C1009.1 1171.7 1009.1 1170 1009.1 1168.2 C1009.1 1161.2 1009.1 1154.1 1009.1 1147.1 C1009.1 1127.4 1009.1 1107.7 1009.1 1088 C1009.1 1087.5 1009.1 1087.5 1009.1 1085.2 C1009.1 1056.7 1009.1 1028.1 1009.1 999.5 C1009.1 998.5 1009.1 997.6 1009.1 996.6 C1009.1 981.6 1009.1 966.5 1009.1 951.5 C1009.1 891.7 1009.1 832 1009.1 772.2 C1009.1 757.2 1009.1 742.1 1009.1 727.1 C1009.1 726.1 1009.1 725.2 1009.1 724.3 C1009.1 695.7 1009.1 667.1 1009.1 638.6 C1009.1 637.7 1009.1 636.8 1009.1 635.9 C1009.1 616.2 1009.1 596.5 1009.1 576.8 C1009.1 569.8 1009.1 562.7 1009.1 555.7 C1009.1 553.9 1009.1 552.2 1009.1 550.4 C1009.1 524.2 1009.1 498.1 1009.1 471.9 C1009.1 471 1009.1 470.1 1009.1 469.3 C1009.1 468.4 1009.1 467.5 1009.1 466.7 C1009.1 437.8 1009.1 408.9 1009.1 379.9 C1009.1 376.8 1009.1 373.7 1009.1 370.6 C1009.1 370.3 1009.1 370.3 1009.1 368.3 C1009.1 356.3 1009.1 344.2 1009.1 332.1 C1009.1 320.3 1009.1 308.4 1009.1 296.6 C1009.1 290.2 1009.1 283.9 1009.1 277.5 C1009.1 271.8 1009.1 266 1009.1 260.2 C1009.1 258.1 1009.1 256.1 1009.1 254 C1009.1 243.9 1009.1 234 1008 224 C1004.9 223 1002.4 223 999.2 223.1 C981.8 222.6 965.9 212.3 954.3 200.1 C939.1 183.2 924.1 160.3 919.8 137.9 C918.9 134.5 917.5 133.3 915 131 C907.3 117.4 903.9 101.7 907.5 86.4 C908.4 82.1 908.6 79.8 906.1 76.2 C905.4 75.5 904.7 74.7 904 74 C903.3 74 902.7 74 902 74 C902 74.6 902 75.3 902 75.9 C901.4 97.6 901.4 97.6 899.4 106.9 C896.9 119.2 896.9 119.2 898 123 C899.5 125.1 901.2 126.9 903.1 128.7 C910.5 137.4 913.8 150.4 914.2 161.7 C914.6 166.7 917.6 169.4 920.7 173.2 C937.3 194 940 222.7 942.7 248.2 C944.8 267.4 948 285.3 960 301 C960.8 302.1 961.6 303.1 962.4 304.2 C965.4 307.4 968.6 309.8 972.2 312.3 C972.8 312.9 973.4 313.4 974 314 C974 315.3 974 316.6 974 318 C958.9 319.4 946.2 313 934.5 304 C910.5 284 902.3 250.5 893 222 C892.3 222 891.7 222 891 222 C890.9 222.6 890.8 223.3 890.7 223.9 C885.1 255.3 876.1 289.1 849 309 C838.9 315.2 829 319.4 817 319 C816.7 317.7 816.3 316.4 816 315 C816.4 314.7 816.4 314.7 818.3 313.1 C835.7 298.2 843.1 278.1 844.8 255.6 C845 251.4 845.1 247.1 845.2 242.9 C845.2 242.1 845.2 241.3 845.3 240.4 C845.3 237 845.4 233.7 845.4 230.3 C845.6 213.6 846.3 194.7 855.2 180.1 C857.2 176.7 857.4 174.8 857 171 C854 172 854 172 853.1 173.7 C852.8 174.4 852.5 175.1 852.3 175.9 C852 176.7 851.7 177.5 851.4 178.3 C851 179.2 850.7 180.1 850.4 181 C839.2 209.9 821 239.3 791.9 252.8 C783.9 256.1 776.8 257.3 768.2 257.3 C767.4 257.3 766.6 257.3 765.7 257.3 C761.1 257.3 757.3 256.8 753 255 C753 253.7 753 252.4 753 251 C753.8 250.6 754.6 250.2 755.5 249.8 C763.4 245.8 769.7 241.4 776 235 C776.7 234.3 777.4 233.6 778.1 233 C792.3 218.1 799.1 197.9 805.5 178.8 C808 171.3 810.7 163.9 814.2 156.8 C814.6 156.1 814.9 155.5 815.2 154.9 C816.7 151.9 818.4 149.5 820.6 147 C823.3 143.6 823.8 141.5 824.5 137.4 C827.1 123.8 832.4 112.5 843.9 104.4 C846 103 846 103 848.9 101.4 C853 98.3 854.7 94.9 856.9 90.4 C857.3 89.5 857.7 88.7 858.2 87.8 C859.5 85.2 860.7 82.6 862 80 C862.4 79.2 862.8 78.4 863.2 77.5 C869.2 64.9 873.2 53.1 874 39 C873.3 38.7 872.7 38.3 872 38 C854 44.8 838.2 56.2 824 69 C822.9 70 821.9 70.9 820.8 71.9 C801.9 88.8 787.9 109.7 776 132 C768.7 145.7 760.8 158.1 751.2 170.3 C742.4 181.5 735.6 192.6 731 206 C730.6 207.2 730.2 208.4 729.7 209.7 C725.8 222.8 724.7 236.5 731 249 C731.3 249.6 731.6 250.2 731.9 250.7 C737.6 261.9 744.6 271.9 752 282 C752.6 282.8 753.2 283.6 753.8 284.4 C757.3 289.2 760.9 294.1 764.4 298.9 C765.8 300.8 767.2 302.6 768.6 304.5 C772.7 310.2 777.1 315.5 781.9 320.7 C783.8 322.8 785.6 324.9 787.4 327.1 C799.1 340.5 799.1 340.5 804.8 341.2 C810.2 341.4 813.9 340.6 818.6 338.1 C830.3 332.9 844.3 333.6 856.2 337.8 C861.4 340 866.3 342.7 870 347 C870.4 350 870.4 350 870 353 C865.7 358.1 856.3 359.4 850 360 C841.1 360.7 831.6 359.4 823.3 355.8 C820.7 354.9 819.6 355.1 817 356 C821.4 361.4 826.2 366.4 831.1 371.4 C831.4 371.7 831.4 371.7 832.9 373.3 C838.7 379.1 838.7 379.1 843 380 C848 379.5 852.7 377.5 857.4 375.8 C870.3 371.4 883.5 371.9 896.1 377.3 C901.6 380.1 905.5 382.9 909 388 C908.1 391.7 907.1 392.9 903.9 395.2 C888.9 402.8 872.3 398.8 857.2 393.8 C855.5 393.2 853.7 392.6 852 392 C853.3 394.8 854.7 397 856.7 399.3 C857.2 399.9 857.7 400.5 858.2 401.1 C858.8 401.7 859.3 402.3 859.9 402.9 C860.9 404.2 862 405.4 863.1 406.6 C863.6 407.2 864.1 407.7 864.6 408.3 C865.8 409.8 867 411.3 868.2 412.9 C870.4 415.5 871.7 416.2 875 417 C879 416.8 882.3 415.9 885.9 414.5 C899.1 410 914 411.5 926.4 417.3 C932.1 420.4 937.5 423.9 940 430 C939.9 433 939.5 434.5 937.4 436.7 C928.2 441.6 916.1 441.3 906.2 438.8 C899.1 436.5 892.3 433.9 886 430 C885.3 430 884.7 430 884 430 C885.6 435 888.6 438.9 891.8 443.1 C892.3 443.8 892.8 444.5 893.3 445.2 C896.5 449.4 899.3 452.5 904 455 C907.3 455.3 910.1 455.2 913.3 454.5 C926.9 452 941.3 454.7 953 462 C957.2 465 961 468.1 963 473 C963.2 476.8 963.2 476.8 963 480 C958.3 482.8 954.3 483.5 948.9 483.4 C948.2 483.4 947.4 483.4 946.7 483.4 C935.1 483.1 926.2 479 916.7 472.7 C914 471 914 471 911 470 C914.6 479.7 919.1 487.7 928.5 492.6 C936.6 497.2 941.8 504.9 946 513 C946.4 513.7 946.8 514.5 947.2 515.2 C951.5 524.1 953.4 534.3 951 544 C949.4 545.8 949.4 545.8 948 547 C936.7 543.7 928.7 537.7 922.5 527.5 C917.7 517.7 914.9 506.8 914.8 495.9 C914.4 487.3 910 481.6 905 475 C904.5 474.2 903.9 473.4 903.3 472.6 C902.9 472.1 902.5 471.5 902 471 C901.3 471 900.7 471 900 471 C900.1 471.3 900.1 471.3 900.6 473.1 C901.1 475.1 901.7 477 902.2 479 C902.7 480.7 903.1 482.4 903.6 484.1 C906.4 494.3 906.8 508.4 902 518 C900.6 519.7 900.6 519.7 899 521 C895.6 521.2 895.6 521.2 892 520 C883.4 510.7 882.4 497 882.9 485 C883.4 477.1 885.5 470.1 889 463 C889.9 455.1 886.9 450.4 882.2 444.2 C881.1 443 880.1 441.7 879.1 440.4 C878.6 439.8 878 439.2 877.5 438.5 C874.4 434.6 871.2 430.8 868 427 C866.7 430.9 867.7 432.3 869.3 436.1 C875.1 450.7 876.4 466.3 870.1 481.1 C869.2 482.8 869.2 482.8 867 485 C864.1 485.7 864.1 485.7 861 485 C854.2 480.4 851.8 471.9 850.2 464.2 C848 451.1 849.4 438.2 855 426 C855.3 425.7 855.7 425.3 856 425 C856.2 422.9 856.2 422.9 856.2 420.2 C856.3 419.8 856.3 419.8 856.3 417.6 C855.5 410.9 849.7 406.3 845.2 401.6 C844.6 400.9 843.9 400.2 843.2 399.4 C841.1 397.3 839.1 395.1 837 393 C836.3 392.3 835.7 391.6 835 390.9 C834.7 390.6 834.7 390.6 833.1 389 C832.6 388.4 832 387.8 831.4 387.2 C830 386 830 386 828 386 C828.3 386.7 828.6 387.4 828.8 388.1 C829 388.6 829 388.6 830 391 C830.4 392 830.8 393 831.2 394 C837.4 409.5 840.1 425.9 834 442 C832.2 445.3 832.2 445.3 830 447 C827.1 447.8 827.1 447.8 824 447 C816.9 441.5 812.9 431.2 811.3 422.6 C809.9 410.1 810.7 397.6 816.2 386.1 C817.5 383.3 818 381.7 818.3 378.6 C814.9 369.2 805 361.8 798 354.8 C796.5 353.3 795 351.8 793.6 350.3 C792.6 349.4 791.6 348.4 790.7 347.5 C790.3 347 790.3 347 788.1 344.9 C786 343 786 343 784 343 C786 348.2 788.3 353.3 790.6 358.4 C795.8 371.5 796.8 386.6 792 400 C790.2 402.3 789.5 402.9 786.6 403.5 C782 402.6 780.1 399.5 777.5 395.9 C769 382.7 766 366.6 768.7 351.2 C769.2 348.8 769.8 346.5 770.3 344.1 C771.6 338.5 771.9 333.3 769.3 327.9 C766.9 324.3 763.7 321.5 760.5 318.5 C757.8 315.8 755.4 313.1 753 310.2 C750.9 307.9 748.8 305.6 746.7 303.4 C741.7 298.1 737 292.6 732.4 287 C729.4 283.2 726.3 279.6 723.1 275.9 C722.6 275.3 722 274.6 721.4 273.9 C720.9 273.3 720.4 272.7 719.8 272.1 C719.3 271.5 718.9 271 718.4 270.4 C717 269 717 269 714 267 C711.9 272.5 711 278.1 709.9 283.9 C709.8 284.8 709.6 285.8 709.4 286.8 C702.3 326.5 709.2 364.2 731.7 397.8 C742.3 412.9 755.7 425.8 768.8 438.8 C783.5 453.4 783.5 453.4 790 461 C800.7 473.2 812.3 481.4 826.4 489.4 C836.1 495.2 844.8 502.2 853 510 C853.7 510.6 854.3 511.2 855 511.8 C866.2 522.3 874.4 536.3 880.9 550 C885 558.4 888.5 562.8 897 567 C907.4 574.1 914.7 586.6 917.3 598.8 C919 606.7 921.5 611.6 926.6 618 C934.9 628.5 939.2 641.3 943.9 653.6 C953.9 679.4 966.4 705.5 992.8 717.9 C995.3 719.1 997.6 720.5 1000 722 C999.7 723.3 999.3 724.6 999 726 C984.5 730.9 968.3 728.7 954.6 722.5 C947.4 718.8 941.1 714.3 935 709 C934.7 708.7 934.7 708.7 932.9 707.3 C912 690 893.8 659.7 886.9 633.5 C885.6 628.3 883.9 624.7 880.4 620.6 C878.9 618.9 878 617.1 877 615 C876.3 615 875.7 615 875 615 C875 616 874.9 617.1 874.9 618.1 C874.8 619.5 874.7 620.9 874.6 622.3 C874.6 623 874.6 623.8 874.5 624.5 C874.3 628.9 873.6 632.8 872.4 637 C871.9 639.6 871.9 639.6 872 642 C873.6 644.4 875.5 646 877.7 647.8 C880.3 650.3 881.8 652.7 883.5 655.9 C885.7 659.9 888 663.3 890.9 666.8 C906.4 685.5 910.9 711.1 914.5 734.5 C918.8 762 924.3 791.8 947.6 810 C950.4 811.9 953.1 813.6 956.2 815 C958 816 958 816 958.9 818 C958.9 818.3 958.9 818.3 959 820 C956.3 822.7 955 822.3 951.3 822.4 C931.2 822 913.8 812.1 900 798 C878.3 774.4 867.3 741.5 860 711 C859.3 711 858.7 711 858 711 C857.7 712.2 857.3 713.5 857 714.7 C849.9 739.8 838.8 767.2 815.2 781 C807.6 785.2 800 788.9 791.2 789.7 C790.3 789.8 789.4 789.9 788.4 789.9 C786 790 786 790 784 789 C783.7 786.7 783.7 786.7 784 784 C785.9 782.2 785.9 782.2 788.4 780.5 C803.4 769.3 809.9 750.1 812.6 732.2 C812.7 730.9 812.9 729.5 813.1 728.2 C813.1 727.5 813.2 726.7 813.3 726 C814.3 716.6 814.7 707.1 815 697.6 C815.7 679.4 817.2 659.5 827.2 643.8 C830.6 637.9 830.8 632.2 831.3 625.6 C832.3 612.5 836.9 599.9 847.1 591.1 C850 589 850 589 852.9 587.6 C857.8 584.4 858.5 578.3 859.9 573 C860.2 571.9 860.5 570.9 860.8 569.7 C863.8 558.8 864.7 549.2 859.1 539.1 C849 523.9 835.8 512.3 819 505 C817.4 508.2 819 511.3 819.8 514.7 C821.8 523 822.7 531.3 823.1 539.9 C823.4 546 824.8 550.4 827.8 555.8 C835 569.2 832.7 585.5 829.1 599.5 C828 603 828 603 826 606 C825.6 608.8 825.4 611.5 825.1 614.2 C822.3 642.9 809.4 671.1 791 693 C790.6 693.5 790.2 694 789.8 694.5 C780.5 705.9 765 715.6 750.3 717.5 C749 717.6 747.7 717.7 746.4 717.8 C745.1 717.8 743.8 717.9 742.5 718 C739.2 718 737.7 717.8 735 716 C736.3 711.7 737.8 710.1 741.6 707.8 C764.1 692.6 769.2 663.8 774 639 C774.2 638.1 774.3 637.2 774.5 636.3 C776.2 627.6 778.1 619.1 781 610.8 C781.2 610.1 781.5 609.4 781.7 608.7 C782.9 605.4 784.2 602.5 786.1 599.6 C788.6 595.4 788.7 591.3 788.9 586.5 C790.1 571.2 794.4 557.7 806 547 C809.1 543.9 808.9 540.8 809.2 536.5 C808.6 506.1 782.2 478.9 762.1 458.9 C761.3 458.1 760.4 457.2 759.5 456.3 C753.6 450.5 747.7 445 741 440 C740.3 439.4 739.6 438.9 738.8 438.3 C737 437 737 437 735 437 C735 437.6 734.9 438.1 734.9 438.7 C733.1 463.3 727.6 482.1 710.8 500.7 C689.1 524.5 673.7 551.8 666 583.2 C665.8 584 665.6 584.9 665.4 585.7 C661.5 602.7 667.7 615.5 674.7 630.7 C677.7 637.1 680.6 643.6 683.2 650.3 C683.5 651.1 683.8 652 684.2 652.8 C686 657.8 687.5 662.8 688.8 668 C694.5 689.6 694.5 689.6 704 695.9 C715.5 703.9 721.1 720.3 723.4 733.4 C724.5 739.1 726 741.7 730 745.7 C741.4 758.5 746.5 777.2 752.2 793 C762.4 821 774.8 853.3 803.1 867.7 C803.8 868 804.5 868.4 805.3 868.7 C807 870 807 870 807.7 872.6 C807.8 873.4 807.9 874.2 808 875 C797.2 880 783.8 876.9 773 873 C763.8 869.3 755.4 864.6 748 858 C747.1 857.3 746.3 856.6 745.4 855.8 C737.8 849.3 731.9 842 726 834 C725.4 833.2 724.8 832.4 724.1 831.5 C718.7 824.1 714.1 816.1 709.3 808.2 C707.3 804.8 705.1 801.4 703 798 C701.7 802 703.1 804.2 704.7 807.9 C712.6 827.9 713.8 849.6 714.5 870.9 C715.6 906.4 719.4 943.9 745 971 C745.9 971.7 746.8 972.4 747.7 973.1 C750 975 750 975 750.8 978.2 C750.8 978.7 750.8 978.7 751 981 C738.2 982.1 725.2 975.6 715.3 967.7 C711.4 964.3 707.7 960.7 704 957 C703.2 956.2 702.5 955.5 701.7 954.7 C669 920 660.1 866.5 656 821 C655.3 821 654.7 821 654 821 C653.7 822.3 653.5 823.5 653.2 824.8 C649.3 843.2 643.7 860.9 637.8 878.7 C629.5 903.9 622.5 930.3 630.1 956.7 C631.1 960.3 631.2 963.3 631 967 C627.8 967.4 626.3 967.2 623.6 965.4 C604.9 948.1 596.3 923.9 594 899 C593.9 897.8 593.8 896.6 593.7 895.4 C592.7 883.7 593 872.1 593.8 860.4 C593.9 859.2 594 857.9 594.1 856.7 C594.7 848.3 595.8 840.3 597.5 832.1 C598 829.3 598 827.7 597 825 C596.5 825.6 596.1 826.2 595.6 826.8 C594.2 828.6 592.7 830.3 591.3 832.1 C589.8 833.9 588.4 835.8 586.9 837.7 C571 857.6 551 874.1 525 878 C521.9 878.2 518.8 878.2 515.8 878.2 C514.9 878.2 514.1 878.2 513.3 878.2 C507.6 878.2 502.5 877.5 497 876 C497 874.4 497 872.7 497 871 C498 870.5 499.1 870 500.1 869.5 C535.3 852.6 550.2 822 564 787.2 C569.2 774.1 574.9 761.1 585 751 C585.4 749.3 585.8 747.6 586.1 745.9 C589.7 730.9 598.3 715.1 611.3 706.5 C614 705 614 705 615.9 704.2 C622.2 701.6 624.2 698.2 626.8 692.1 C626.9 691.6 626.9 691.6 627.9 689.5 C635.3 672.4 637.7 655.3 638.4 636.9 C639.4 612.2 640.7 588.1 648 564.3 C649 561 649 561 649 558 C634.6 559.1 622.7 571.1 612.9 580.8 C612.6 581.1 612.6 581.1 611 582.7 C606.7 587.1 603.4 590.6 602.4 596.8 C602.6 601.2 604.6 603.4 607.3 606.8 C614.7 616.4 618.8 629.4 618.4 641.6 C616.4 654.6 616.4 654.6 613 658 C610.4 658.6 610.4 658.6 607 658 C598.4 651.4 594.8 639.9 593.3 629.5 C592.5 622 593.3 614.5 594 607 C589.9 610.8 586.9 614.9 583.8 619.6 C583.4 620.2 582.9 620.9 582.5 621.6 C578.8 627.1 576.3 631.4 576.4 638.2 C577.4 642.9 580.6 645.7 583.7 649.2 C591.3 658.4 595 672.2 594 684 C593.2 689 592.4 693.5 590 698 C586.3 698.4 584.4 698.2 581.1 696.3 C573.9 689.7 569.4 678.8 568.8 669.2 C568.8 666.1 568.8 663.1 568.9 660 C568.9 658.9 568.9 657.9 568.9 656.8 C568.9 654.2 569 651.6 569 649 C568.3 649 567.7 649 567 649 C565.2 652.7 563.4 656.3 561.6 660 C561 661 560.5 662.1 560 663.1 C557.2 668.8 554.9 673.6 555 680 C556.2 682.6 556.2 682.6 558 685 C558.3 685.5 558.3 685.5 560.1 687.9 C560.9 689 561.6 690 562.4 691.1 C570.3 702.2 572.9 713.5 572 727 C571.1 730.9 569.9 734.1 567 737 C564.2 737.1 564.2 737.1 561 736 C553.9 729.3 549.2 718.4 548.7 708.7 C548.6 707.9 548.6 707.1 548.6 706.2 C548.5 705.8 548.5 705.8 548.4 703.8 C548.4 703.3 548.4 703.3 548.3 701.2 C548.2 699.1 548.1 697.1 548 695 C547.3 695 546.7 695 546 695 C545 697.7 543.9 700.3 542.9 703 C542.6 703.7 542.3 704.5 542 705.3 C540 710.7 539.9 714.3 541 720 C544 736.9 541.5 753.8 531.6 768 C529.9 770.1 528.4 771.8 526 773 C524 773 522 773 520 773 C519.3 771.8 518.7 770.5 518.1 769.3 C517.9 769 517.9 769 517 767.2 C512.7 757.3 514.5 744.9 518 735 C521.5 726.9 525.2 719 532.1 713.2 C535.1 709.7 536 705.7 537.2 701.4 C537.5 700.5 537.8 699.6 538.1 698.7 C540 692.3 540 692.3 540 690 C539.3 690 538.7 690 538 690 C536.8 691.6 535.7 693.3 534.6 694.9 C526.7 705.9 515.6 713.7 502.6 717.4 C499 718 496.5 718 493 717 C492.3 716.3 491.7 715.7 491 715 C491.2 705.2 496.3 698.1 502.8 691.1 C511.9 682.6 523.3 678.8 535.5 677.8 C541.3 676.5 545.3 674.5 548.7 669.5 C550.3 666.5 551.7 663.5 553.1 660.4 C553.6 659.3 554.1 658.3 554.6 657.2 C558.1 649.4 558.1 649.4 557 646 C556.7 646.3 556.7 646.3 555.4 647.7 C550.2 652.7 545.2 656.3 538.8 659.4 C538.1 659.8 537.5 660.1 536.8 660.4 C530.4 663.5 524.4 665.3 517.2 665.3 C516.1 665.3 515 665.3 513.9 665.4 C511 665 511 665 509.1 663.7 C507.7 661.5 507.8 660.5 508.4 657.9 C510.7 649.3 516.9 643.3 524.2 638.6 C534.3 632.9 543.3 631.4 554.7 631.5 C560.3 631.4 563.6 630.8 568 627 C571.7 623 574.3 618.3 577 613.6 C579.9 608.6 582.8 603.7 586 599 C585.7 598.3 585.3 597.7 585 597 C584.4 597.5 583.8 598 583.2 598.5 C576.9 603.8 570.6 607.7 563 611 C562.2 611.3 561.4 611.7 560.6 612 C555.2 614 549.9 614.3 544.1 614.3 C543.4 614.3 542.6 614.3 541.9 614.3 C538.2 614.3 535.1 614.2 532 612 C530.9 609.9 530.9 609.9 531 607 C535.5 596.5 544.9 591.3 555 587 C559.8 585.4 563.8 584.8 568.9 584.9 C570.1 584.9 571.4 584.9 572.7 584.9 C574 584.9 575.3 585 576.6 585 C579.2 585.1 581.8 585.1 584.4 585.1 C585 585.1 585 585.1 587.9 585.2 C592.4 584.9 595 584 598.1 580.8 C598.8 579.8 599.5 578.9 600.2 578 C613.1 561.7 627.2 550.4 645 539.8 C658.8 531.6 667.9 522 677.4 509.1 C679.8 506 682.2 502.9 684.7 499.8 C685.6 498.6 686.5 497.5 687.4 496.3 C689.1 494.1 690.9 492 692.6 489.8 C707.3 471.8 712.8 453.2 711 430 C709.7 419.6 706.1 409.9 702 400.3 C693.1 379.3 685.2 358.6 682 336 C681.9 335.1 681.7 334.2 681.6 333.2 C681.3 330.5 681.1 327.8 681 325 C681 324.7 681 324.7 680.9 323 C679.7 289.2 686.8 254.7 694.5 221.9 C695 218.9 695.1 216.1 695 213 C691 214.2 687.4 215.7 683.7 217.6 C670.3 224.2 656.1 229 641.9 233.7 C630.1 237.7 620.7 241.9 614 253 C608.6 264.7 606.9 278.6 610.3 291.2 C611.9 295.1 615 297.2 618.3 299.7 C627.8 307.5 633.1 318.1 636 330 C636 330.6 636 330.6 636.2 333.9 C636.6 337.2 637.5 338.9 639.6 341.5 C648.3 352.2 652.7 366 657 379 C664.4 401.3 672.5 425.1 694.5 436.8 C695 437.2 695.5 437.6 696 438 C696 439.3 696 440.6 696 442 C689.2 445.4 676.6 443.6 669.6 441.4 C667.7 440.6 665.8 439.8 664 439 C663.1 438.6 662.2 438.2 661.2 437.8 C636.5 425.6 620.4 397.1 609 373 C608.3 373 607.7 373 607 373 C606.2 378.1 607.1 380.6 610.1 384.9 C621.7 402.1 626 423.6 628 444 C628.1 444.5 628.1 444.5 628.3 447.1 C631.3 478.2 628.2 510.4 608.2 535.8 C602.9 541.6 596.9 546.1 589 547 C589.4 542.8 590.1 539.6 591.9 535.8 C606.6 503.6 590.5 467.1 580 436 C579 436.3 578 436.7 577 437 C576.1 438.8 576.1 438.8 575.5 441.1 C575.2 442 574.9 442.8 574.7 443.7 C574.4 444.6 574.1 445.5 573.8 446.5 C565.9 471.3 553.3 494.7 530 508 C521.9 511.7 514.6 514.2 505.7 514.1 C504.6 514.1 503.6 514 502.4 514 C502 514 502 514 500 514 C499.7 512.7 499.3 511.4 499 510 C499.6 509.6 500.2 509.1 500.8 508.6 C505.1 505.3 509.3 502 513 498 C513.9 497.1 514.9 496.1 515.8 495.2 C530.1 478.1 532.6 454.6 534.7 433.3 C536.9 411.1 539.8 387.9 556 371 C557.3 370.1 558.5 369.2 559.8 368.4 C563.5 365.4 563.7 362.4 564.2 357.8 C564.2 357.1 564.3 356.4 564.4 355.7 C565.2 346.5 568.6 338.8 575 332 C575.8 331.5 576.7 331 577.6 330.4 C581.3 326.7 581.4 322.7 582.2 317.7 C583.7 309.3 585.4 301 587.4 292.8 C587.6 291.9 587.8 291 588 290.1 C588.8 286.6 589.7 283 590.5 279.5 C591.1 277 591.7 274.5 592.3 271.9 C592.5 271.2 592.7 270.4 592.9 269.6 C594.1 264.3 594.1 264.3 593 261 C591.8 261.9 590.6 262.8 589.4 263.7 C588.7 264.2 588 264.7 587.3 265.2 C577.3 273 564.1 286.3 561.5 299.3 C561.5 302.2 562 305 562.5 307.8 C564.9 323.8 561.3 338.4 553 352 C552.3 352.7 551.6 353.3 550.9 354 C548.3 356.7 548 359.1 547.2 362.7 C540.4 391.3 518.2 422.6 493.1 438.1 C482.2 444.6 471.2 448.4 458.5 448.2 C457.7 448.3 456.9 448.3 456.1 448.3 C450.7 448.3 446.1 447.5 441 446 C441 444.4 441 442.7 441 441 C442.1 440.5 443.1 440 444.2 439.5 C472.6 425.9 485.5 402 496 373.4 C500.3 361.8 505.1 350.2 513.2 340.9 C517 336.6 518.5 332.1 520.1 326.8 C523.7 315.2 529.6 304.1 540.2 297.7 C541.5 297 542.8 296.4 544.1 295.9 C550.5 293 552.5 289.9 555.6 283.8 C561.2 273.2 568.1 263.8 575.9 254.6 C578 252 578 252 578 251 C571.5 250.7 565.5 251.9 559.1 253.2 C549.9 255 540.7 256.5 531.4 257.8 C502.2 261.9 474 269.6 451 289 C450.2 289.7 449.4 290.3 448.6 291 C418.9 316.6 402.9 358.6 398.7 396.8 C398.4 403.1 399.2 406.2 403.3 411 C410.7 420 414 432.3 414.1 443.7 C414.3 450.6 415.3 455.3 419.3 461.1 C428.7 477 430.2 496.9 433 514.8 C436.7 538.3 442.7 563.7 462.6 578.8 C465 581 465 581 465.2 583.6 C465.1 584.4 465.1 585.2 465 586 C450.2 587.2 437.4 582.2 426 573 C401.1 550.9 381.6 509.2 378.7 476 C378.5 473.7 378.4 471.3 378.4 469 C377.9 465.6 376.8 463.8 375 461 C369.5 445.7 371.8 428.8 377.5 414.1 C378.7 411.5 379.8 409.9 381.6 407.8 C384.9 403.3 384.8 398.7 385.1 393.3 C385.9 379.5 388 365.9 392.5 352.8 C393 351 393 351 393 348 C377.6 354.3 367.1 375.2 360.8 389.5 C355.8 401.4 348.2 419.8 351 433 C352.3 435.1 353.7 436.9 355.3 438.9 C362.5 448.2 365 460.1 365.2 471.6 C365.3 481.4 366.5 487.5 371.9 495.7 C378.4 505.9 381.7 518.2 384 530 C384.2 530.8 384.3 531.5 384.5 532.3 C389.2 557.8 389.8 587.7 384 613 C383.8 613.7 383.7 614.5 383.5 615.2 C379 634.1 369.2 655.5 353 667 C349.8 669 346.6 670.8 343 672 C342 671.7 341 671.3 340 671 C339.7 666.7 340.6 664.3 342.8 660.6 C360.3 626.6 346.3 585.8 336.7 551.5 C336 549 335.5 546.5 335 544 C334.3 544 333.7 544 333 544 C332.8 544.6 332.7 545.2 332.5 545.8 C325.4 570.7 316.4 594.4 299 614 C298.3 614.8 297.5 615.7 296.8 616.5 C284.9 629.1 268.1 639.3 250.4 640.1 C248.3 640.1 246.1 640.1 244 640 C243.7 638.4 243.3 636.7 243 635 C243.4 634.7 243.4 634.7 245.4 633.3 C268.1 616.6 278.5 593.9 283 566.4 C284 559.5 284.7 552.6 285.4 545.6 C287.9 522.8 291 495.8 307.9 478.8 C311.3 475.3 312.6 473.3 312.6 468.4 C312.4 466.9 312.2 465.4 312 464 C310.7 464 309.4 464 308 464 C307.5 465.2 307.1 466.3 306.6 467.5 C297.1 491.1 284.1 512.1 267 531 C266.6 531.5 266.6 531.5 264.4 533.9 C250.9 548.1 233.3 558.7 213.5 560.3 C205.6 560.5 198.5 559.3 191 557 C190.7 555.7 190.3 554.4 190 553 C193.3 550.3 196.7 548.7 200.6 546.9 C230.2 532.4 243.7 498.5 255.8 469.8 C260.2 459.2 264.7 449.2 272.8 440.9 C277 436.5 278 433.1 279.2 427.3 C281.9 416.8 288.7 405.8 297 399 C300.1 397.2 303.3 395.7 306.5 394.1 C313 390.8 316.2 386.1 320 380 C322.3 376.9 324.6 374 327 371 C327.5 370.3 328.1 369.6 328.6 368.9 C338.9 356.6 353.3 348.7 367.1 341 C379.2 334.2 389.6 326 399.5 316.4 C400.9 315.1 402.3 313.8 403.6 312.5 C408.9 307.5 413.4 302.1 417.8 296.3 C429.8 280.8 443.8 267.8 460 257 C459 254 459 254 456.6 252.7 C441.6 247.1 420.9 241.1 405 247 C402.3 248.6 402.3 248.6 400 251 C399.4 253.6 399.1 255.8 398.9 258.5 C397.5 273.8 392 285.4 380.2 295.5 C377 297.6 374.8 298 371 298 C367.5 292.7 368.5 286.1 369 280 C371.2 270.1 376.7 261.9 384 255 C385 253.7 386 252.4 387 251 C380.8 251.2 375.5 252.7 369.7 254.8 C369 255.1 368.3 255.3 367.6 255.6 C363.6 257.1 360.4 258.3 358 262 C357.5 265.3 357.5 268.5 357.5 271.9 C357.1 287.4 353.3 302.7 342 314 C338.2 316.8 334.8 318.6 330 318 C326 311.6 327.3 301.6 328.7 294.5 C331.5 284.2 336.8 274.9 344 267 C340.5 267.6 337.8 268.4 334.8 270.1 C334 270.6 333.2 271 332.4 271.4 C331.6 271.9 330.8 272.3 330 272.8 C329.2 273.3 328.4 273.7 327.6 274.1 C316.9 280.1 316.9 280.1 315 284 C315 285.7 315 287.5 315 289.2 C315 290.3 315 291.4 315.1 292.5 C315.1 294.7 315.2 296.9 315.2 299.2 C315.4 314.3 310.9 328.5 300.4 339.7 C297.5 342.4 295.2 343.9 291.2 344.2 C290.5 344.1 289.7 344.1 289 344 C284.2 335.2 285.3 325.6 287.9 316.1 C291.1 307 295.7 298.4 302 291 C294.8 293.5 289 298.4 283 303 C282.1 303.7 281.1 304.4 280.2 305.1 C274.5 310 273 314.6 272 321.8 C270 335.8 262.9 347.4 252.1 356.4 C247.3 360 243.1 362.7 237.1 363.5 C236.1 363.3 235 363.2 234 363 C231.3 359 231.5 355.7 232 351 C234.9 337.2 242 325.9 253 317 C256.5 314.8 260.1 312.9 263.8 311 C267.5 308.7 269.4 306.6 272 303 C272 302.3 272 301.7 272 301 C266.6 301.8 262 304.1 257.1 306.4 C248.9 310.1 241.6 311.3 232.6 311.3 C231.7 311.3 230.8 311.3 229.9 311.4 C222.5 311.4 216.2 310.1 210 306 C209.1 303.8 209.1 303.8 209 301 C212.1 293.8 219.6 289.8 226.7 286.9 C241.9 282.2 255.7 283.3 270.1 289.9 C276 292.2 281.2 292.5 287 290 C289.7 288.2 292.2 286.3 294.8 284.4 C299.2 281 304.1 278.2 308.9 275.3 C310.6 274.3 312.3 273.1 314 272 C314 271.3 314 270.7 314 270 C313.2 270.2 312.4 270.4 311.5 270.7 C294.6 274.8 278.9 274.3 263.1 266.4 C260.7 264.8 259.5 263.4 258 261 C257.8 258.6 257.8 258.6 259 256 C266.3 249.8 274.6 248.6 283.8 248.7 C284.7 248.7 285.6 248.7 286.5 248.7 C298 248.9 308 252.2 316.6 260.2 C317 260.8 317.5 261.3 318 261.8 C321.3 263.8 324.2 264.4 328 264 C332.9 262.2 337.4 259.9 342 257.6 C343.3 256.9 344.5 256.3 345.8 255.7 C348.9 254.1 351.9 252.6 355 251 C355 250.3 355 249.7 355 249 C353.7 249 352.4 248.9 351.1 248.9 C333.6 248.4 318.9 245.2 305.7 233.1 C304 231 304 231 303.1 227.2 C304 224 304 224 306.1 222.1 C317.3 217.7 329.1 219.7 340 224 C347.9 227.5 354.9 232.5 359.6 239.8 C362.3 243.4 363.6 244.3 368 245 C373.7 244.3 379.3 242.7 384.8 241.1 C385.8 240.9 386.7 240.6 387.7 240.3 C388.2 240.2 388.2 240.2 390.5 239.6 C391.4 239.3 392.2 239.1 393.1 238.9 C393.7 238.6 394.3 238.3 395 238 C395.3 237 395.7 236 396 235 C394.9 234.8 393.8 234.7 392.7 234.5 C377.2 232.1 362.5 227.6 352.4 214.8 C350.4 211.9 349.1 209.6 349 206 C349.3 205 349.7 204 350 203 C356.3 199.9 366.8 201.6 373.3 203.6 C385.3 208.1 394.5 216.4 400.3 227.8 C402.6 230.8 404.4 231.7 408 233 C411.5 233.3 414.9 233.2 418.4 233.1 C429.9 232.9 440.4 233.8 451.6 236.7 C477.2 243.4 497.3 242.5 523.2 237.7 C526.8 237 530.5 236.4 534.1 235.9 C553.4 232.8 572.2 228.2 591 223 C591.8 222.8 592.5 222.6 593.3 222.4 C631.7 211.8 671.1 200.8 700.9 172.9 C703 171 703 171 706.1 168.6 C723.1 153.4 733.2 130.9 743.1 110.7 C755.5 85.3 755.5 85.3 764.3 75.4 C764.9 74.6 765.4 73.8 766 73 C765.6 70.9 765.6 70.9 765 69 C758.1 67.2 751.7 66.6 744.6 66.7 C743.5 66.7 742.5 66.7 741.4 66.7 C734.8 66.8 728.3 67.2 721.8 68.3 C721.1 68.4 720.4 68.5 719.6 68.7 C715.5 69.4 712.4 70.5 709 73 C707.8 75.4 707.9 76.9 707.8 79.6 C707.4 99.7 707.4 99.7 703 108 C702.6 108.9 702.1 109.7 701.7 110.6 C698 117.4 693.3 123.7 685.6 126 C683 126 683 126 681 125 C677.5 114 678.6 103.6 683.3 93.1 C686.4 87 690.6 79.2 697 76 C697 75.3 697 74.7 697 74 C678.8 77.7 678.8 77.7 671.6 79.5 C670.8 79.7 670 79.9 669.1 80.1 C666.3 81.3 664.9 82.5 663 85 C662.5 87.6 662.1 90 661.9 92.6 C660.5 106.9 655.8 120 645 130 C640.5 133.5 636.7 134.5 631 134 C627.4 126.9 628.9 120.1 631 112.8 C634.2 103.5 639.1 97 646 90 C646.6 89.4 647.1 88.9 647.7 88.3 C648.8 87.2 649.9 86.1 651 85 C644.2 85.3 637.7 86.3 631.1 87.8 C630.4 87.9 629.7 88 628.9 88.2 C624 89.3 621.1 90.8 618 95 C617.1 98.5 617.1 98.5 616.6 102.4 C614.9 113.9 610 125 601.1 132.6 C600.5 133 600 133.4 599.4 133.8 C598.8 134.2 598.2 134.6 597.6 135 C594.7 136.8 592.2 137.1 588.8 137.1 C587.6 137 586.3 137 585 137 C582.9 127 585.3 117.9 590.7 109.2 C593.8 105 597.4 101.4 601.2 97.8 C601.8 97.2 602.4 96.6 603 96 C603 95.7 603 95.3 603 95 C596.6 95.2 590.8 96.5 584.8 98.4 C584.1 98.6 583.4 98.8 582.7 99 C571.6 102.6 571.6 102.6 568.3 107.2 C561.7 115.4 550.3 121.1 540 123 C531.2 123.5 523.2 123.7 515 120 C513 118 513 118 512.9 115.4 C515.2 108.1 520.3 104.1 526.9 100.6 C539.2 95.1 551.8 95 565.1 96.7 C570.1 97.3 573.4 96.2 578 94 C578 93.3 578 92.7 578 92 C576.9 91.9 575.8 91.8 574.7 91.7 C560.6 90.4 548.3 87.3 538 77 C537.6 74.6 537.6 74.6 538 72 C543.2 68 548.6 67.4 555 68 C565.8 69.8 574.9 73.7 581.8 82.4 C582.9 83.9 584 85.4 585 87 C591.3 88.4 596.3 87.6 602.5 86.1 C603.3 85.9 604.1 85.7 605 85.5 C607 85 609 84.5 611 84 C611 83 611 82 611 81 C610.4 80.9 609.8 80.7 609.2 80.6 C595.4 76.8 585.4 70.3 578 58 C576.6 55.3 576.9 53 577 50 C582.7 47.2 590.8 48.6 596.6 50.5 C608.3 55.4 616.2 63.1 621.7 74.5 C623.2 77.4 624 77.9 627 79 C636.9 79.5 647.4 76.1 657 74 C657 73.3 657 72.7 657 72 C656.3 71.9 655.5 71.7 654.8 71.6 C641.5 68.6 630 62.6 622.5 51 C620.1 46.7 619.4 43.9 620 39 C625.6 36.2 632.8 38.1 638.5 40 C651.1 45.1 658.6 53.3 664.6 65.3 C666 68 666 68 668 69 C675.1 69.7 681.2 68.4 688.1 66.7 C688.9 66.5 689.8 66.3 690.7 66 C691.5 65.8 692.3 65.6 693.1 65.4 C693.5 65.3 693.5 65.3 695.3 64.8 C695.9 64.5 696.4 64.3 697 64 C697.3 63 697.7 62 698 61 C697.2 60.9 696.5 60.7 695.7 60.6 C688.2 58.9 682.3 56.5 676 52 C675.4 51.5 674.7 51.1 674 50.6 C669 46.7 665.6 41.8 663 36 C662.6 32.4 662.6 32.4 663 30 C664.7 28.3 666.9 28.7 669.3 28.6 C680.2 28.7 690.8 34.1 698.7 41.6 C702.2 45.4 704.6 49.6 706.9 54.2 C708 56 708 56 710 57 C716 57.6 721.6 57 727.5 55.6 C736 53.8 744.6 53.2 753.3 52.7 C772.4 51.6 784 46.4 798.1 33.3 C803.6 28.2 809.5 23.7 815.5 19.2 C816.2 18.7 816.9 18.1 817.7 17.6 C818.3 17.1 819 16.6 819.6 16.1 C820.1 15.8 820.5 15.4 821 15 C821 14.7 821 14.3 821 14 C746.4 13.9 671.8 13.8 597.2 13.8 C596.6 13.8 596.6 13.8 593.8 13.8 C569.9 13.8 545.9 13.8 521.9 13.7 C510.1 13.7 498.4 13.7 486.6 13.7 C485.4 13.7 484.2 13.7 483 13.7 C445.1 13.7 407.1 13.7 369.2 13.6 C330.2 13.6 291.2 13.5 252.2 13.5 C246.7 13.5 241.2 13.5 235.7 13.5 C235.1 13.5 235.1 13.5 232.4 13.5 C214.9 13.5 197.5 13.5 180 13.5 C162.5 13.4 144.9 13.4 127.4 13.4 C117 13.4 106.5 13.4 96.1 13.4 C89.1 13.4 82.2 13.4 75.2 13.4 C71.2 13.4 67.3 13.4 63.3 13.4 C59.7 13.4 56.1 13.4 52.5 13.4 C50.6 13.4 48.6 13.4 46.7 13.3 C37 13.4 28.4 15.9 22.2 23.9 Z " fill="#1C1411" transform="translate(0,0)"/>
<path d="M0 0 C1.9 2.4 3.1 5.1 4.3 7.9 C4.5 8.2 4.5 8.2 5.4 10.1 C7.5 14.7 9.1 18.5 9.2 23.6 C9.7 44.9 14 61.8 29.3 77.4 C36.1 83.7 36.1 83.7 41 84 C44.2 81.8 44.7 80.9 45.6 77.2 C48.4 62 46.7 45.9 38.5 32.6 C35.6 28.6 32.3 25.3 28.7 21.9 C23.7 17.1 19.8 13.1 19 6 C19.4 0.6 19.4 0.6 21 -1 C25.1 -1.4 29.3 -1.4 33.4 -1.4 C34.6 -1.5 35.7 -1.5 36.9 -1.6 C45.1 -1.7 50.7 -0.3 57 5 C66.9 15.5 66.4 30.6 66.3 44.1 C66.3 45.8 66.3 47.4 66.3 49.1 C66.3 53.6 66.3 58.1 66.3 62.6 C66.3 67.4 66.3 72.1 66.3 76.8 C66.3 85.8 66.2 94.7 66.2 103.7 C66.2 113.8 66.2 124 66.2 134.2 C66.1 155.1 66.1 176.1 66 197 C65.3 197.3 64.7 197.7 64 198 C43.9 183.9 36.6 164.6 29 142.1 C19.1 112.9 19.1 112.9 11.2 104.8 C7.3 100.8 6.8 96.7 5.8 91.4 C3.3 80.7 -3.3 70.6 -12.4 64.4 C-15.5 62.6 -18.8 61.1 -22.1 59.7 C-31 54.5 -39.1 42.1 -43.1 32.8 C-44.5 27.1 -44.8 22.4 -42.9 16.8 C-35.3 5.7 -21.8 2 -9.2 -0.7 C-5.6 -1 -3.4 -1.2 0 0 Z " fill="#EEE5D1" transform="translate(943,15)"/>
<path d="M0 0 C3 0 3 0 4.6 1.4 C6.4 3.6 8.2 5.8 10 8 C10.6 8.7 11.2 9.3 11.8 10 C30.6 32.3 32.5 65.7 33.6 93.5 C35 126 36.9 162.3 57.7 189.2 C59 191 59 191 59 193 C39.9 187.6 26.6 167.5 16.9 151.3 C-2.7 116 -20 58.1 -9 18 C-7.9 16.1 -6.7 14.5 -5.3 12.8 C-2.6 9 -1.4 4.4 0 0 Z " fill="#E4BC5C" transform="translate(674,776)"/>
<path d="M0 0 C0.7 0 1.3 0 2 0 C2 0.6 2 1.2 2 1.8 C2.4 8.7 3.9 14.6 6.3 21 C15.2 46.7 -0.6 82 -8.4 106.3 C-20.2 142.8 -20.2 142.8 -20.1 159.7 C-20.1 160 -20.1 160 -20.1 161.8 C-20.1 164 -20.1 166.2 -20.1 168.4 C-20.1 169.9 -20.1 171.5 -20 173 C-20 176.6 -20 180.3 -20 184 C-25.8 182.1 -27.9 175.2 -30.5 170 C-47.9 133.3 -44.3 83.2 -31.2 45.7 C-26.7 33.5 -21.3 19.7 -9.9 12.3 C-5.4 9.2 -2.3 4.9 0 0 Z " fill="#E4BC5C" transform="translate(641,766)"/>
<path d="M0 0 C0.7 0 1.3 0 2 0 C2.9 1.5 3.8 3.1 4.6 4.6 C6.7 8.3 8.5 10.7 12 13 C25 22.1 30.1 44.5 32.8 59.3 C39.2 97.1 39.2 141 17.2 173.9 C14.9 177.1 12.6 180.1 10 183 C9.3 183 8.7 183 8 183 C8.2 182.1 8.4 181.2 8.6 180.3 C8.9 179 9.2 177.8 9.4 176.6 C9.7 175.4 10 174.2 10.2 172.9 C16.4 142.8 7.6 113.5 0.1 84.5 C-4.2 67.8 -8.2 51.6 -8.3 34.2 C-8.3 33.4 -8.3 32.6 -8.3 31.8 C-8.2 24.2 -6 17.9 -3.4 10.8 C-0.8 3.5 -0.8 3.5 0 0 Z " fill="#E4BC5C" transform="translate(345,473)"/>
<path d="M0 0 C16.4 7.8 25.1 25.8 31 42 C31.9 44.8 32.7 47.7 33.5 50.6 C33.6 51 33.6 51 34.1 53.1 C36.9 64.2 38.6 75.5 40.3 86.8 C44.1 111.1 50.3 135.7 68.4 153.4 C69.3 154.3 70.1 155.1 71 156 C71 156.7 71 157.3 71 158 C60.3 154.8 51.6 150.2 43 143 C42.7 142.8 42.7 142.8 41.3 141.7 C17.4 123.2 6.4 87.9 -1 60 C-1.2 59.3 -1.4 58.5 -1.6 57.7 C-7.1 37.8 -5.7 19.8 0 0 Z " fill="#E4BC5C" transform="translate(869,656)"/>
<path d="M0 0 C0.7 0 1.3 0 2 0 C3.2 1.3 3.2 1.3 4.5 3.1 C7 6.2 9.4 7.9 12.9 9.8 C31.7 20.7 38.6 48.2 45.6 67.3 C50.7 81.4 55.9 95.3 63.7 108.1 C64.2 109 64.7 109.8 65.2 110.7 C71.9 121.3 79.5 130.9 90 138 C90 138.3 90 138.7 90 139 C77.4 140.1 64.9 132.9 55.2 125.5 C26.9 101.8 -0.3 62.9 -5.8 25.6 C-6 21.1 -5.2 18.4 -3.1 14.5 C-1 9.9 -0.6 4.9 0 0 Z " fill="#E4BC5C" transform="translate(701,730)"/>
<path d="M0 0 C1 0.3 2 0.7 3 1 C3.8 3.5 3.8 3.5 4.5 6.6 C5.2 10.1 5.9 12.8 7.6 16 C10.2 21.9 9.2 28.8 8.9 35.1 C8.9 35.5 8.9 35.5 8.9 37.3 C7.4 73.7 -4.4 111.3 -30 138 C-30.3 138.3 -30.3 138.3 -31.9 140.1 C-37.8 146.5 -48.7 155.7 -57.8 156.1 C-58.5 156.1 -59.2 156 -60 156 C-59.6 155.5 -59.6 155.5 -57.5 153.2 C-37.8 130 -32.9 104.3 -29.5 74.9 C-22.9 20.1 -22.9 20.1 -3.9 3.1 C-3.6 2.8 -3.6 2.8 -1.9 1.3 C-1.3 0.8 -0.6 0.4 0 0 Z " fill="#E4BC5C" transform="translate(321,474)"/>
<path d="M0 0 C0.1 1.3 0.3 2.6 0.4 3.9 C0.6 5.6 0.8 7.3 0.9 9 C1 9.8 1.1 10.7 1.2 11.5 C1.3 12.4 1.4 13.2 1.5 14.1 C1.5 14.5 1.5 14.5 1.7 16.6 C1.9 18.1 2.1 19.6 2.3 21.2 C5.6 42.7 -11.9 68.3 -24 85 C-26.5 88.4 -29.2 91.8 -32 95 C-32.7 95.8 -33.4 96.6 -34.1 97.5 C-47.6 112.9 -64.3 126.3 -85 130 C-88.3 130.1 -91.7 130.1 -95 130 C-95 129.3 -95 128.7 -95 128 C-93.2 126.8 -91.4 125.6 -89.6 124.4 C-64.9 108.2 -53.2 79.4 -42.3 53.2 C-26.5 15.3 -26.5 15.3 -12.5 9.3 C-8.7 7.3 -5.8 4.5 -2.7 1.6 C-1 0 -1 0 0 0 Z " fill="#E4BC5C" transform="translate(611,741)"/>
<path d="M0 0 C1 0.3 2 0.7 3 1 C4.1 3.8 4.1 3.8 5.1 7.3 C6.8 13.7 6.8 13.7 8 15.9 C9.1 18.2 9.3 19.7 9.3 22.1 C9.3 22.9 9.3 23.7 9.3 24.5 C9.3 25.3 9.3 26.1 9.2 27 C9.2 27.9 9.2 28.7 9.2 29.6 C9.1 35.1 8.7 40.3 7.6 45.7 C7.1 48.3 6.7 51 6.4 53.7 C2.1 87.1 -7 124.3 -35 146 C-43.7 152.2 -43.7 152.2 -47.3 151.6 C-47.9 151.4 -48.4 151.2 -49 151 C-48.4 150.2 -47.8 149.4 -47.2 148.5 C-41.3 139.8 -37.1 131.1 -34 121 C-33.7 120 -33.4 119 -33 118 C-29.3 104.2 -29.4 89.2 -28.5 75.1 C-25.7 26.5 -25.7 26.5 -13 12 C-11 10.6 -9 9.3 -7 8 C-4.5 5.4 -2.3 2.7 0 0 Z " fill="#E4BC5C" transform="translate(850,627)"/>
<path d="M0 0 C0.7 0 1.3 0 2 0 C3.3 1.5 3.3 1.5 4.7 3.6 C6.7 6.5 8.6 8.6 11.4 10.8 C25.6 22.5 30.2 46.8 33 64 C33.2 65.1 33.4 66.2 33.5 67.3 C34.9 76.5 35.4 85.6 35.4 95 C35.4 97.3 35.4 99.6 35.4 102 C35.6 122.2 30.7 141.4 19 158 C18.7 158.4 18.7 158.4 17.4 160.3 C17.2 160.6 17.2 160.6 16 162 C15.3 162 14.7 162 14 162 C14.1 161.4 14.3 160.7 14.4 160 C15.9 152.8 16.4 145.9 16.4 138.5 C16.4 137.5 16.4 136.4 16.4 135.4 C16.5 119.1 11.5 103.6 6.4 88.3 C-12.9 29.9 -12.9 29.9 -2 7 C-1.2 4.7 -0.6 2.4 0 0 Z " fill="#E4BC5C" transform="translate(587,369)"/>
<path d="M0 0 C0.7 0 1.3 0 2 0 C3.1 1.2 4.2 2.5 5.2 3.8 C7.5 6.5 8.7 7.9 11.9 9.4 C23.5 15.5 29.7 32.4 33.5 44.2 C38 59.6 39.9 75.5 41.7 91.4 C44.1 112 47.9 131.3 61 148 C58 149 58 149 55.9 148.1 C17.8 125 6.5 74.1 -3.4 33.6 C-6 22.5 -4.6 14.8 -1 4 C-0.6 2.7 -0.3 1.3 0 0 Z " fill="#E4BC5C" transform="translate(895,159)"/>
<path d="M0 0 C0.7 0 1.3 0 2 0 C2 1.3 1.9 2.5 1.9 3.8 C1.9 7.5 2.3 10.8 3.1 14.4 C6.9 34.3 -6.5 55.4 -17 71.4 C-32.3 93.6 -50.3 115.4 -77.1 123.4 C-82.1 124.2 -87 124.2 -92 124 C-92 123.3 -92 122.7 -92 122 C-90.3 120.8 -88.6 119.7 -86.9 118.7 C-62.1 103.2 -49.5 73.6 -38.8 47.6 C-34.4 37 -29.8 27.3 -23 18 C-22.4 17.2 -21.9 16.4 -21.3 15.6 C-17.3 10.4 -12.7 8 -6.8 5.4 C-3.9 4 -2.2 2.3 0 0 Z " fill="#E4BC5C" transform="translate(299,429)"/>
<path d="M0 0 C3.7 1.7 6.6 4 9.8 6.5 C12 8 12 8 15 9.4 C31.7 18.4 38.8 46.8 45 63 C53.2 84.1 64.7 104.6 83.9 117.4 C84.6 117.9 85.3 118.5 86 119 C86 119.7 86 120.3 86 121 C63.6 120.5 47.9 107.1 32.9 91.9 C26 84.5 20.5 76.4 15 68 C14.6 67.4 14.2 66.7 13.7 66.1 C5.4 53 -5.7 35.1 -4 19 C-3.3 16.2 -2.5 13.5 -1.7 10.7 C-0.8 7.2 -0.3 3.7 0 0 Z " fill="#E4BC5C" transform="translate(896,601)"/>
<path d="M0 0 C3.4 1.1 3.8 1.8 5.7 4.6 C7.9 7.7 10 9.9 12.9 12.1 C26.8 23.8 29.4 47.7 32 64.6 C39.8 114.7 39.8 114.7 57 134 C54.4 135 53.3 135.1 50.6 134.2 C42.6 129.8 36.4 124.4 30 118 C29.3 117.4 28.7 116.7 28 116 C7.1 93.9 -9.3 52.5 -8.5 22.2 C-7.9 18.3 -6.7 16.1 -4.3 13 C-1.8 9.1 -1 4.5 0 0 Z " fill="#E4BC5C" transform="translate(393,442)"/>
<path d="M0 0 C2.7 1.3 2.8 2.6 3.9 5.3 C4.9 7.8 5.8 9.8 7.5 11.8 C12.3 18.7 11.4 29.7 11.4 37.8 C11.4 38.3 11.4 38.3 11.4 41.3 C11.2 52.8 9.5 63.8 7 75 C6.9 75.7 6.7 76.4 6.5 77.2 C1.4 101.2 -11.7 124.1 -32 138.4 C-33.9 139.6 -33.9 139.6 -37 141 C-38 140.7 -39 140.3 -40 140 C-39.8 139.7 -39.8 139.7 -38.7 138.1 C-27 120.3 -22 102.1 -21.8 81.1 C-21.8 79.4 -21.7 77.7 -21.7 76 C-21.7 75.6 -21.7 75.6 -21.7 73.4 C-20.8 19.4 -20.8 19.4 -5.9 5 C-4 3.3 -2 1.6 0 0 Z " fill="#E4BC5C" transform="translate(873,168)"/>
<path d="M0 0 C0.7 0 1.3 0 2 0 C2.2 0.5 2.2 0.5 3 2.9 C3.4 4.1 3.9 5.3 4.3 6.6 C4.7 7.9 5.2 9.1 5.6 10.4 C7 14 7 14 8.6 17.2 C14.3 28.8 6.8 47.6 2.9 58.9 C-2.8 74.9 -10.4 89.7 -21 103 C-21.7 103.9 -22.4 104.8 -23.2 105.8 C-31.2 115.4 -42.1 122.9 -54 127 C-55 127 -56 127 -57 127 C-55.6 124 -54 121.8 -51.8 119.4 C-36.9 102.6 -32.5 79.3 -28.5 57.9 C-21.2 18.6 -21.2 18.6 -9.9 10.6 C-9.3 10.2 -8.6 9.8 -7.9 9.4 C-5 7.3 -3.2 4.5 -1.2 1.5 C-0.8 1 -0.4 0.5 0 0 Z " fill="#E4BC5C" transform="translate(809,583)"/>
<path d="M0 0 C0.7 0 1.3 0 2 0 C2 1.3 1.9 2.6 1.9 3.9 C1.9 7.4 2.3 10.5 3.1 13.9 C6.4 29.3 -2 43.8 -9 57 C-9.6 58.1 -10.1 59.1 -10.7 60.2 C-15.3 68.5 -21 75.7 -27 83 C-27.8 83.9 -28.5 84.8 -29.3 85.8 C-41.5 99.9 -56.8 111.1 -75.8 112.8 C-77.5 112.8 -79.2 112.9 -81 113 C-79.9 109.6 -78.8 109.2 -75.9 107.3 C-55.2 93 -45.2 68.6 -36.4 46 C-23.9 13.6 -23.9 13.6 -9.8 6.6 C-8.8 6.2 -7.8 5.8 -6.7 5.4 C-3.9 3.9 -2.2 2.3 0 0 Z " fill="#E4BC5C" transform="translate(539,329)"/>
<path d="M0 0 C3.4 2.3 3.7 3.2 5 6.9 C6.7 11.7 6.7 11.7 8.5 13.8 C11.6 18.4 10.8 24.5 11 29.9 C11 30.5 11 31.2 11.1 31.9 C11.4 44.5 9.8 56 6 68 C5.7 68.8 5.5 69.7 5.2 70.5 C0.2 86.2 -6.7 101.7 -18 114 C-18.7 114.8 -19.4 115.6 -20.1 116.4 C-25.4 122 -31.3 126.2 -38 130 C-38.7 130.4 -39.4 130.8 -40.1 131.3 C-42.4 132.2 -43.6 131.8 -46 131 C-45.4 130.3 -44.9 129.6 -44.3 128.9 C-29.9 110.5 -25 90.9 -22.7 68 C-17.4 15.3 -17.4 15.3 0 0 Z " fill="#E4BC5C" transform="translate(563,373)"/>
<path d="M0 0 C0.7 0 1.3 0 2 0 C2.1 0.9 2.2 1.7 2.4 2.6 C2.5 3.8 2.7 4.9 2.9 6.1 C3 7.3 3.2 8.4 3.4 9.6 C4 13 4 13 5.1 16.1 C9.3 29.1 -0.2 46.6 -5.8 58.1 C-13.2 72.5 -22.6 85.4 -34 97 C-34.3 97.3 -34.3 97.3 -35.8 98.9 C-46.7 109.1 -60.2 115.2 -75 116 C-75 115.3 -75 114.7 -75 114 C-73.6 112.9 -72.1 112 -70.6 111 C-51.5 97.9 -42.7 75.4 -35.3 54.4 C-35.1 53.7 -34.8 53 -34.6 52.3 C-33.4 48.9 -32.3 45.6 -31.1 42.2 C-26.1 27.3 -20.3 14.3 -6.3 6.4 C-3.5 4.7 -1.9 2.6 0 0 Z " fill="#E4BC5C" transform="translate(844,135)"/>
<path d="M0 0 C3.3 1.2 6.1 2.6 9.1 4.5 C11 5.8 12.9 6.9 15 7.9 C28.1 15.3 34.3 40.7 38.7 54.1 C44.4 71.4 52.2 93.5 68 104 C68 104.7 68 105.3 68 106 C51 104.6 37.9 94.2 27.2 81.8 C13.9 65.8 -0.7 44 -4 23 C-3.7 19.6 -3.7 19.6 -3 16 C-2.9 15.7 -2.9 15.7 -2.6 13.9 C-2.2 11.8 -1.8 9.7 -1.4 7.6 C-1.3 6.8 -1.2 6.1 -1 5.3 C-0.7 3.6 -0.3 1.8 0 0 Z " fill="#E4BC5C" transform="translate(929,110)"/>
<path d="M0 0 C2.8 1.3 4.6 2.5 6.9 4.5 C10 7 10 7 12.5 7.9 C21.5 11.8 26.2 25.4 30 34 C32.5 40.5 34.6 47.1 36.7 53.7 C42.4 71.4 49.7 87.5 62.5 101.2 C64 103 64 103 64 104 C52.5 103.4 44.7 98.2 36 91 C35.3 90.5 34.7 90 34 89.5 C16.4 75.2 -2.3 45.7 -5.3 22.9 C-5.5 18.5 -4.5 15.1 -2.8 11.1 C-1.4 7.5 -0.7 3.8 0 0 Z " fill="#E4BC5C" transform="translate(616,332)"/>
<path d="M0 0 C0.7 0 1.3 0 2 0 C26.9 42.3 26.9 42.3 23 61 C22.4 62.8 21.7 64.6 21 66.4 C19.2 71.1 18.3 75 18 80 C17.9 80.7 17.9 81.4 17.8 82.1 C17.5 90.5 19.4 98.8 21 107 C19.7 107 18.4 107 17 107 C16.9 106.7 16.9 106.7 16.2 105 C12.7 97.5 8.8 93.5 2 89 C1.2 86.6 1.2 86.6 0.7 83.6 C0.6 83 0.6 83 0.1 80.2 C-0.1 79.1 -0.3 77.9 -0.5 76.7 C-0.9 74.3 -1.4 71.9 -1.8 69.5 C-2 68.4 -2.2 67.3 -2.4 66.1 C-3.3 61.6 -4.3 57.3 -5.5 52.9 C-7 44.1 -5.5 35.4 -4.1 26.7 C-4 25.6 -3.8 24.4 -3.6 23.3 C-3.1 19.8 -2.5 16.4 -2 13 C-1.6 10.5 -1.2 8.1 -0.9 5.6 C-0.7 4.6 -0.5 3.5 -0.4 2.4 C-0.3 2 -0.3 2 0 0 Z " fill="#EEE5D1" transform="translate(657,634)"/>
<path d="M0 0 C0.7 0 1.3 0 2 0 C7 14.3 5.9 29.8 3.3 44.5 C3.2 45.4 3 46.3 2.9 47.2 C1.8 52.6 0.4 55.4 -4 59 C-8.4 63.7 -12 68.7 -15.5 74.1 C-16 74.7 -16.5 75.3 -17 76 C-17.7 76 -18.3 76 -19 76 C-18.8 74.9 -18.7 73.8 -18.5 72.7 C-17.5 64.8 -17.6 57.4 -19.5 49.7 C-19.6 48.8 -19.8 47.9 -20 47 C-20.1 46.3 -20.3 45.7 -20.4 45 C-21.4 38.9 -20.4 35.2 -17.6 29.9 C-17.3 29.2 -16.9 28.4 -16.5 27.7 C-12.8 20.2 -8.5 13.1 -4 6 C-3.6 5.4 -3.3 4.8 -2.9 4.2 C-2 2.8 -1 1.4 0 0 Z " fill="#EEE5D1" transform="translate(886,64)"/>
<path d="M0 0 C0.7 0.7 1.3 1.3 2 2 C1.5 3 1 3.9 0.5 4.9 C-6.3 18.7 -11.5 32.9 -14.4 48 C-14.7 49.1 -14.9 50.3 -15.1 51.5 C-15.6 53.8 -16 56.1 -16.3 58.3 C-17.8 66 -17.8 66 -21.3 68.9 C-23 69.9 -24.8 70.9 -26.6 71.7 C-29.8 73.4 -31.5 75.5 -33.6 78.4 C-34.3 79.2 -34.9 80.1 -35.6 81 C-35.8 81.3 -35.8 81.3 -37 83 C-38.3 79 -37 76.4 -35.6 72.6 C-33.1 65.7 -31.8 59.7 -31.9 52.3 C-31.9 51.6 -31.9 50.9 -31.9 50.2 C-31.9 46.2 -32.2 42.6 -32.9 38.7 C-33.7 32.2 -29.8 27.8 -26 23 C-18.4 13.7 -10.1 6.4 0 0 Z " fill="#EEE5D1" transform="translate(357,363)"/>
<path d="M0 0 C0.7 0 1.3 0 2 0 C2.8 3.4 3.7 6.7 4.5 10.1 C4.7 11 5 11.9 5.2 12.9 C7.7 22.9 7.7 22.9 7 28 C5.3 30.2 5.3 30.2 3.1 31.9 C2.8 32.2 2.8 32.2 0.9 33.7 C-1 35 -1 35 -3 35 C-3 34.5 -3 34.5 -3.1 32.3 C-3.8 21.1 -3.8 21.1 -5.4 16.4 C-6.9 11 -3.9 6.9 -1.4 2.3 C-0.9 1.5 -0.5 0.8 0 0 Z " fill="#EEE5D1" transform="translate(640,696)"/>
<path d="M0 0 C1 0.3 2 0.7 3 1 C4.1 9.5 4.1 9.5 1.7 12.9 C0.4 14 -0.8 15.1 -2.1 16.2 C-7 20.9 -10.1 27.8 -13 34 C-13.7 33 -14.3 32 -15 31 C-14.4 29.9 -13.8 28.8 -13.2 27.7 C-8.9 19.8 -4.9 11.9 -1.9 3.3 C-1 1 -1 1 0 0 Z " fill="#EEE5D1" transform="translate(309,463)"/>
<path d="M0 0 C1 0.3 2 0.7 3 1 C2.5 6.2 1.8 11.3 0.9 16.4 C-0 22.3 -0.2 28 0 34 C-0.7 34 -1.3 34 -2 34 C-6 28.3 -6 28.3 -6 25 C-5.6 22.8 -5 20.8 -4.4 18.7 C-4 17.2 -3.6 15.7 -3.2 14.2 C-3 13.5 -2.8 12.8 -2.6 12 C-1.8 9.4 -1.3 6.7 -0.8 3.9 C-0.6 3.2 -0.5 2.4 -0.3 1.6 C-0.2 1.1 -0.1 0.5 0 0 Z " fill="#EEE5D1" transform="translate(872,563)"/>
<path d="M0 0 C3 1 3 1 3.9 2.7 C4.2 3.4 4.5 4.1 4.7 4.8 C5 5.6 5.3 6.4 5.6 7.2 C5.9 8 6.2 8.8 6.5 9.7 C7.1 11.3 7.7 12.9 8.3 14.5 C8.6 15.3 8.9 16 9.1 16.8 C10.3 19.6 11.6 22.3 13 25 C13 25.7 13 26.3 13 27 C12.3 27 11.7 27 11 27 C9.9 25.6 9.9 25.6 8.8 23.6 C7.4 21.2 6 19 4.3 16.8 C0.1 11.1 -0.8 7 0 0 Z " fill="#EEE5D1" transform="translate(688,768)"/>
<path d="M0 0 C0.7 0 1.3 0 2 0 C3.6 5.2 2.4 8.1 0 12.8 C-2.2 17.7 -2.3 23 -2.6 28.3 C-2.6 29.1 -2.6 29.8 -2.7 30.6 C-2.8 32.4 -2.9 34.2 -3 36 C-4 35.7 -5 35.3 -6 35 C-6.7 23.2 -3 11.3 0 0 Z " fill="#EEE5D1" transform="translate(597,295)"/>
<path d="M0 0 C0.7 0 1.3 0 2 0 C2.4 5 1.3 8 -1 12.4 C-1.6 13.4 -2.1 14.5 -2.7 15.6 C-3.1 16.4 -3.6 17.2 -4 18 C-4.7 17.7 -5.3 17.3 -6 17 C-5.3 12.9 -4.1 9.5 -2.4 5.7 C-2.2 5.2 -2.2 5.2 -1.1 2.4 C-0.9 2 -0.9 2 0 0 Z " fill="#EEE5D1" transform="translate(855,171)"/>
</svg>
